<svg width="32" height="32" viewBox="0 0 32 32" fill="none" xmlns="http://www.w3.org/2000/svg">
<g clip-path="url(#clip0_62_6)">
<path d="M25 0H7C3.13401 0 0 3.13401 0 7V25C0 28.866 3.13401 32 7 32H25C28.866 32 32 28.866 32 25V7C32 3.13401 28.866 0 25 0Z" fill="#EDE9E3"/>
<path d="M13.6825 21.8274C12.5043 21.8274 11.4901 21.5888 10.6399 21.1115C9.79474 20.6293 9.14347 19.9482 8.68608 19.0682C8.22869 18.1832 8 17.1367 8 15.9286C8 14.7504 8.22869 13.7163 8.68608 12.8263C9.14347 11.9364 9.78729 11.2429 10.6175 10.7457C11.4528 10.2486 12.4322 10 13.5558 10C14.3114 10 15.0149 10.1218 15.6662 10.3654C16.3224 10.604 16.8942 10.9645 17.3814 11.4467C17.8736 11.929 18.2564 12.5355 18.5298 13.2663C18.8033 13.9922 18.94 14.8423 18.94 15.8168V16.6893H9.26776V14.7205H15.9496C15.9496 14.2631 15.8501 13.858 15.6513 13.505C15.4524 13.152 15.1765 12.8761 14.8235 12.6772C14.4755 12.4734 14.0703 12.3714 13.608 12.3714C13.1257 12.3714 12.6982 12.4833 12.3253 12.707C11.9574 12.9258 11.669 13.2216 11.4602 13.5945C11.2514 13.9624 11.1445 14.3725 11.1396 14.8249V16.6967C11.1396 17.2635 11.244 17.7532 11.4528 18.1658C11.6665 18.5785 11.9673 18.8967 12.3551 19.1204C12.7429 19.3441 13.2028 19.456 13.7347 19.456C14.0877 19.456 14.4109 19.4062 14.7042 19.3068C14.9975 19.2074 15.2486 19.0582 15.4574 18.8594C15.6662 18.6605 15.8253 18.4169 15.9347 18.1286L18.8729 18.3224C18.7237 19.0284 18.418 19.6449 17.9556 20.1719C17.4982 20.6939 16.9066 21.1016 16.1808 21.3949C15.4599 21.6832 14.6271 21.8274 13.6825 21.8274Z" fill="#13161A"/>
<path d="M21.47 21.6037C22.5746 21.6037 23.47 20.7083 23.47 19.6037C23.47 18.4991 22.5746 17.6037 21.47 17.6037C20.3654 17.6037 19.47 18.4991 19.47 19.6037C19.47 20.7083 20.3654 21.6037 21.47 21.6037Z" fill="#13161A"/>
</g>
<defs>
<clipPath id="clip0_62_6">
<rect width="32" height="32" fill="white"/>
</clipPath>
</defs>
</svg>
